# xmcd
#
# Track frame offsets:
#	150
#	12000
#	28032
#	45772
#	66932
#	87550
#	106127
#	133687
#	156367
#	172977
#	194920
#	212435
#
# Disc length: 3087 seconds
#
# Revision: 1
# Processed by: cddbd v1.4PL0 Copyright (c) Steve Scherf et al.
# Submitted via: audiograbber 1.81.02
#
DISCID=9c0c0d0c
DTITLE=Jeff Smallwood - Cowboy dust
DYEAR=1999
DGENRE=Country
TTITLE0=Girls in daddy's car
TTITLE1=Problems in paradise
TTITLE2=The day the blues turned gray
TTITLE3=No milk today
TTITLE4=Asbestos man
TTITLE5=I need to run
TTITLE6=Long blonde
TTITLE7=Somebody's love song
TTITLE8=Watch my hair
TTITLE9=Boulevard of broken dreams
TTITLE10=Tears of pride
TTITLE11=Down down down
EXTD=www.QuebecPop.com
EXTT0=
EXTT1=
EXTT2=
EXTT3=
EXTT4=
EXTT5=
EXTT6=
EXTT7=
EXTT8=
EXTT9=
EXTT10=
EXTT11=
PLAYORDER=
